<?xml version="1.0" encoding="UTF-8"?>
<svg id="old_logo" data-name="old logo" xmlns="http://www.w3.org/2000/svg" viewBox="0 0 1303.42 217.95">
  <defs>
    <style>
      .cls-1 {
        fill: none;
        stroke: #009bd9;
        stroke-width: 2.36px;
      }

      .cls-2 {
        fill: #009bd9;
      }

      .cls-3 {
        opacity: .58;
      }

      .cls-4, .cls-5 {
        fill: #ae0b3b;
      }

      .cls-5 {
        font-family: DIN2014-Bold, 'DIN 2014';
        font-size: 135.95px;
        font-weight: 700;
      }
    </style>
  </defs>
  <g>
    <g>
      <path class="cls-2" d="M863.23,61.43v25.53c0,2.73-.6,5.19-1.8,7.38-1.2,2.2-3.01,3.93-5.44,5.2-2.43,1.27-5.47,1.91-9.12,1.91-5.23,0-9.21-1.34-11.94-4.01-2.73-2.67-4.09-6.2-4.09-10.58v-25.42h8.35v24.16c0,3.28.66,5.57,1.99,6.88,1.32,1.31,3.3,1.96,5.91,1.96s4.71-.72,5.94-2.15c1.23-1.44,1.85-3.68,1.85-6.74v-24.1h8.34Z"/>
      <path class="cls-2" d="M905.13,100.9h-10.61l-17.19-29.85h-.22c.07,1.88.16,3.76.25,5.64.09,1.88.18,3.76.25,5.64v18.57h-7.46v-39.47h10.56l17.13,29.57h.17c-.07-1.8-.15-3.61-.22-5.41-.07-1.8-.13-3.63-.16-5.47v-18.68h7.52v39.47Z"/>
    </g>
    <polygon class="cls-2" points="929.84 100.9 911.87 100.9 911.87 96.14 916.68 93.93 916.68 68.4 911.87 66.19 911.87 61.43 929.84 61.43 929.84 66.19 925.03 68.4 925.03 93.93 929.84 96.14 929.84 100.9"/>
    <polygon class="cls-2" points="954.55 100.9 946.2 100.9 946.2 68.4 935.48 68.4 935.48 61.43 965.27 61.43 965.27 68.4 954.55 68.4 954.55 100.9"/>
    <polygon class="cls-2" points="994.07 100.9 971.35 100.9 971.35 61.43 994.07 61.43 994.07 68.29 979.69 68.29 979.69 76.97 993.07 76.97 993.07 83.82 979.69 83.82 979.69 93.99 994.07 93.99 994.07 100.9"/>
    <g>
      <path class="cls-2" d="M1025.85,81c0-4.35-.96-7.56-2.88-9.62-1.92-2.06-4.7-3.09-8.35-3.09h-4.47v25.7h3.59c8.07,0,12.11-4.33,12.11-12.99M1034.52,80.78c0,6.67-1.9,11.69-5.69,15.06-3.8,3.37-9.08,5.06-15.87,5.06h-11.17v-39.47h12.38c4.13,0,7.71.74,10.75,2.21,3.04,1.47,5.4,3.65,7.08,6.52,1.68,2.87,2.52,6.41,2.52,10.61"/>
      <path class="cls-2" d="M1092.06,100.9h-10.61l-17.19-29.85h-.22c.07,1.88.16,3.76.25,5.64.09,1.88.18,3.76.25,5.64v18.57h-7.46v-39.47h10.56l17.13,29.57h.17c-.07-1.8-.15-3.61-.22-5.41-.07-1.8-.13-3.63-.16-5.47v-18.68h7.52v39.47Z"/>
      <path class="cls-2" d="M1121.3,84.48l-2.88-9.18c-.18-.63-.42-1.42-.72-2.38-.29-.96-.59-1.93-.88-2.93-.3-.99-.54-1.86-.72-2.6-.18.74-.43,1.65-.75,2.74-.31,1.09-.61,2.12-.88,3.09-.28.98-.49,1.67-.64,2.07l-2.82,9.18h10.28ZM1126.17,100.9l-2.88-9.4h-14.37l-2.88,9.4h-9.01l13.93-39.63h10.22l13.99,39.63h-9.01Z"/>
    </g>
    <polygon class="cls-2" points="1151.48 100.9 1143.14 100.9 1143.14 68.4 1132.41 68.4 1132.41 61.43 1162.2 61.43 1162.2 68.4 1151.48 68.4 1151.48 100.9"/>
    <polygon class="cls-2" points="1185.8 100.9 1167.84 100.9 1167.84 96.14 1172.65 93.93 1172.65 68.4 1167.84 66.19 1167.84 61.43 1185.8 61.43 1185.8 66.19 1181 68.4 1181 93.93 1185.8 96.14 1185.8 100.9"/>
    <g>
      <path class="cls-2" d="M1199.57,81.11c0,4.13.79,7.38,2.38,9.76,1.59,2.38,4.13,3.57,7.63,3.57s6.14-1.19,7.68-3.57c1.55-2.38,2.32-5.63,2.32-9.76s-.77-7.38-2.32-9.76c-1.55-2.38-4.09-3.57-7.63-3.57s-6.1,1.19-7.68,3.57c-1.59,2.38-2.38,5.63-2.38,9.76M1228.36,81.11c0,4.09-.67,7.66-2.02,10.69-1.34,3.04-3.41,5.41-6.19,7.11-2.78,1.7-6.31,2.54-10.59,2.54s-7.8-.84-10.58-2.54c-2.78-1.7-4.84-4.07-6.19-7.13-1.34-3.06-2.02-6.63-2.02-10.72s.67-7.65,2.02-10.67c1.35-3.02,3.41-5.37,6.19-7.05,2.78-1.68,6.33-2.51,10.64-2.51s7.79.84,10.56,2.51c2.77,1.68,4.82,4.04,6.16,7.08,1.35,3.04,2.02,6.61,2.02,10.7"/>
      <path class="cls-2" d="M1270.21,100.9h-10.61l-17.19-29.85h-.22c.07,1.88.16,3.76.25,5.64.09,1.88.18,3.76.25,5.64v18.57h-7.46v-39.47h10.56l17.13,29.57h.17c-.07-1.8-.15-3.61-.22-5.41-.07-1.8-.13-3.63-.16-5.47v-18.68h7.52v39.47Z"/>
      <path class="cls-2" d="M1303.42,89.95c0,3.5-1.26,6.29-3.79,8.38-2.52,2.08-6.11,3.12-10.75,3.12-4.16,0-7.89-.79-11.17-2.38v-7.79c1.88.81,3.82,1.55,5.83,2.24,2.01.68,4,1.02,6,1.02s3.53-.39,4.4-1.19c.86-.79,1.3-1.8,1.3-3.01,0-1-.34-1.84-1.02-2.54-.68-.7-1.59-1.35-2.73-1.96-1.14-.61-2.45-1.26-3.93-1.96-.92-.44-1.91-.97-2.98-1.57-1.07-.61-2.09-1.36-3.07-2.27-.98-.9-1.78-2-2.4-3.29-.63-1.29-.94-2.84-.94-4.65,0-3.54,1.2-6.29,3.59-8.26,2.39-1.97,5.66-2.96,9.78-2.96,2.06,0,4.02.24,5.86.72,1.84.48,3.79,1.16,5.86,2.05l-2.71,6.52c-1.8-.74-3.43-1.31-4.86-1.71-1.44-.41-2.91-.61-4.42-.61s-2.8.37-3.65,1.11c-.84.73-1.27,1.7-1.27,2.87,0,1.4.63,2.51,1.88,3.32,1.25.81,3.11,1.8,5.58,2.98,2.03.96,3.75,1.96,5.17,2.99,1.42,1.03,2.52,2.25,3.29,3.64.77,1.4,1.16,3.13,1.16,5.2"/>
      <path class="cls-2" d="M850.23,139.69h13.65v19.35c-2.14.7-4.29,1.21-6.47,1.55-2.17.33-4.64.5-7.4.5-4.09,0-7.54-.82-10.34-2.46-2.8-1.64-4.93-3.98-6.38-7.02-1.46-3.04-2.18-6.64-2.18-10.81s.8-7.66,2.4-10.7c1.6-3.04,3.93-5.4,6.99-7.08,3.06-1.68,6.74-2.51,11.06-2.51,2.21,0,4.3.2,6.27.61,1.97.41,3.81.98,5.5,1.72l-1.88,4.31c-1.4-.59-2.98-1.11-4.72-1.57-1.75-.46-3.57-.69-5.45-.69-4.72,0-8.39,1.43-11.03,4.29-2.63,2.86-3.95,6.74-3.95,11.63,0,3.13.5,5.91,1.52,8.32,1.01,2.41,2.61,4.29,4.78,5.64,2.17,1.35,5.03,2.02,8.57,2.02,1.73,0,3.2-.09,4.42-.28,1.22-.18,2.32-.41,3.32-.66v-11.72h-8.68v-4.42Z"/>
    </g>
    <polygon class="cls-2" points="895 160.53 872.95 160.53 872.95 121.06 895 121.06 895 125.43 877.92 125.43 877.92 137.76 894.01 137.76 894.01 142.07 877.92 142.07 877.92 156.16 895 156.16 895 160.53"/>
    <path class="cls-2" d="M933.97,160.53h-5.81l-21.11-32.78h-.22c.07,1.29.17,2.89.28,4.81.11,1.92.17,3.89.17,5.91v22.05h-4.59v-39.47h5.75l21.06,32.67h.22c-.04-.59-.09-1.47-.14-2.65s-.11-2.46-.16-3.84c-.05-1.38-.09-2.68-.09-3.89v-22.28h4.65v39.47Z"/>
    <polygon class="cls-2" points="966.08 160.53 944.03 160.53 944.03 121.06 966.08 121.06 966.08 125.43 949 125.43 949 137.76 965.09 137.76 965.09 142.07 949 142.07 949 156.16 966.08 156.16 966.08 160.53"/>
    <g>
      <path class="cls-2" d="M1003.89,121.06l-14.1,39.47h-4.97l-14.1-39.47h5.2l8.9,25.32c.59,1.62,1.08,3.14,1.47,4.56.39,1.42.73,2.77,1.02,4.06.26-1.29.59-2.65.99-4.09.41-1.44.9-2.98,1.49-4.65l8.84-25.2h5.25Z"/>
      <path class="cls-2" d="M1025.17,143.89l-4.42-11.94c-.11-.29-.29-.83-.55-1.6-.26-.77-.51-1.57-.75-2.4-.24-.83-.43-1.47-.58-1.91-.3,1.14-.6,2.26-.91,3.34-.31,1.09-.58,1.95-.8,2.57l-4.48,11.94h12.49ZM1031.42,160.53l-4.75-12.22h-15.64l-4.7,12.22h-5.03l15.42-39.63h4.48l15.37,39.63h-5.14Z"/>
      <path class="cls-2" d="M595.86,166.77c-.61-1.52-2.43-4.55-4.24-7.88l.31-.3c1.21,1.21,2.73,2.11,3.93,3.63v4.55ZM595.86,204.62c-3.64-1.81-7.27-4.54-10.6-8.17l.31-.31c4.54,2.12,7.57,3.64,10.29,4.24v4.24ZM595.86,151.64c-13.93-16.36-21.81-36.95-21.81-59.66s8.18-43.91,21.81-59.65v8.17c-10,13.33-16.35,29.38-16.96,46.63,0,.61,0,1.21-.3,2.12.61-.31,1.52-.31,2.12-.31h10.9c.31,0,.91,0,1.52.31-.31-.6-.31-1.22-.31-1.82-.3-5.74,1.22-11.5,3.03-17.26v57.24c-1.21-.91-2.12-2.12-2.72-2.73h-.31c0,.31-.61.91-.9.91-1.22,0-1.82-.91-3.34-2.73-1.21.61-1.5.31-1.81-.3l-2.12-5.46c0-1.21.3-6.05,3.33-6.05q.6,0,1.22.61c.61.31,1.5-.3,1.5-1.5l2.43-.91,1.52,2.12c.29.3.6.61.6.61-.31-1.21-.91-2.43-1.21-4.55-.62-3.02-1.52-9.99-1.52-12.1,0-.61,0-1.21.3-1.81-.61.29-1.21.29-1.5.29h-10.91c-.6,0-.9,0-1.81-.29.3.9.3,1.21.3,1.81.62,17.86,6.67,34.82,16.96,47.84v8.48ZM599.19,9.02c-10.6,8.77-15.74,23-31.79,33.31,7.88-30.89,24.22-27.26,31.5-33.62l.3.31ZM595.86,194.93c-17.86-2.12-27.26-13.02-31.19-19.98l.31-.31c10.29,9.69,16.95,9.4,30.88,10.91v9.38ZM574.05,21.43c-9.69,7.57-6.97,15.14-14.54,35.73v.31c8.19-16.36,21.21-15.45,26.66-28.46h.29c-4.54,14.53-5.14,15.74-11.5,21.19-8.77,7.57-15.45,11.81-19.38,18.78v-21.19c0-12.42,7.57-23.93,18.47-26.66v.31ZM595.86,181.6l-12.72-2.72c-16.05-3.33-33.31-16.05-37.84-36.04l.31-.29c4.54,9.99,12.41,14.53,27.85,22.1,7.57,3.64,15.45,10.9,18.17,11.81l.31-.3c-6.97-6.06-11.2-11.51-12.41-18.47-1.82-9.09-4.55-21.81-5.76-25.74l.3-.31c7.88,11.2,10,14.24,12.72,21.5,4.24,10.91,6.36,17.26,9.09,21.5v6.97ZM552.26,85.31c1.52-7.26,2.72-12.71,10.9-19.98,8.79-7.86,10-9.08,11.81-13.02h.31c-.6,3.64-3.33,13.33-7.27,19.38-13.62,19.08-15.43,21.5-16.05,28.77h-.3c-2.72-13.03-8.17-23.01-8.17-33.62,0-9.38,2.42-18.47,10.9-29.37h.29c-1.21,3.03-3.33,6.97-3.33,10.91,0,12.71,1.22,20.28,1.22,26.35,0,4.84-.31,7.57-.62,10.59h.31ZM541.05,70.78c0,3.64-.29,5.45-.29,9.39,0,7.57,9.69,22.71,13.31,40.28h.31c0-.61-1.52-6.36-1.52-8.79,0-14.83,11.51-24.23,13.93-34.52h.3c1.22,14.24-9.08,39.97-9.08,46.64,0,2.41,0,5.75.3,9.08h-.3c-10-16.65-20.89-20.6-20.89-44.51,0-5.45,2.41-14.23,3.64-17.57h.29ZM565.58,106.21c3.33,8.48,3.93,13.93,5.45,27.26,1.52,15.14,2.12,21.19,6.36,29.07l-22.41-14.85c-7.57-4.54-18.17-19.67-18.17-33.61,0-2.12.31-3.93.61-5.75,2.43,16.96,16.05,20.29,29.98,42.4l.31-.31c-2.43-4.54-5.76-12.71-5.76-17.26,0-8.48,3.33-13.31,3.33-26.95h.31Z"/>
      <path class="cls-2" d="M649.74,103.79h-.6l-.31-.31h-.3c-.61,1.21-.91,1.81-2.72,3.93l3.93-3.62ZM644.9,115.3c-.6.6-1.21.91-1.52.91.61.3.91.61,1.22.9,4.23,3.64,9.99,6.07,15.74,6.97.3-1.5.61-4.84,1.81-4.84,2.12,0,2.43,0,2.43-.9,0-.31-1.52-1.82-1.52-2.12,0-.91.3-1.22.61-1.52-.31-.31-.31-1.21-.31-1.81s.31-1.22.62-1.52c-.62.3-1.22.61-1.82.61-3.02-.31-5.75-1.52-8.17-3.33-.61-.31-1.21-.91-1.52-1.82,0,.6-.61,1.52-1.21,2.12l-6.36,6.36ZM662.76,60.79c0-.31,0-.91.3-1.82-.6.31-.91.62-1.52.62-6.66,1.21-12.41,3.93-17.26,7.86l-1.52,1.21.91-.3c.91,0,3.64,2.12,4.54,2.73v.6l-.9.31v.3q.9.91,1.5.91c0-.31.31-1.21.91-1.21,0,0,.31,0,1.81,1.21h1.52l.91.6c.91-.6,3.03-1.21,3.33-2.72.31-2.12.31-2.43,1.82-3.33,0,.6.3,1.52.9,1.52.31,0,1.21-.31,1.82-.31s.9.31,1.21.31c-.3-.31-.3-.91-.3-1.22v-7.26ZM644.9,108.33s-.91-4.54-1.21-4.54,0,1.81,0,2.12l-.61.3c-.31-.61-2.12-1.52-2.12-1.81-.31-.31-.31-.6-.31-1.52l-1.21-.91q-.6.31-1.21.31c-.6-1.52-2.12-2.12-5.15-2.43.61.31,1.21,1.82,1.52,3.03.91,2.72,2.73,6.36,4.84,9.09.31.29.61.6.91,1.52.3-.91.61-1.22,1.21-1.82l3.33-3.33ZM662.76,43.83c0-.61,0-1.21.3-1.81-.91.31-1.52.31-2.12.31-10.9.9-20.59,5.14-27.86,11.5-.6.61-1.21.91-1.81,1.21.9.31,1.21.61,1.52.91l7.26,7.26c.31.31.61.61.91,1.22.29-.62.6-.91,1.21-1.52,5.45-4.55,12.12-7.27,19.07-8.17.91,0,1.22,0,1.82.29,0-.29-.3-.91-.3-1.52v-9.69ZM632.8,127.11c-.62.6-1.22.91-1.83,1.21.61,0,1.21.6,1.83,1.22,5.74,5.45,13.62,9.38,21.5,11.5,2.41.61,5.14,1.21,6.35,1.21-.9-.61-1.5-.91-2.12-.91l-1.81-.61c-3.03-.9-3.33-4.24-5.15-6.36-.3-1.21,1.82-1.21,2.12-3.62.31-2.12,3.03-2.43,4.84-3.04-1.5.31-2.41.31-3.63,0-5.15-1.52-9.39-3.93-13.63-7.26-.29-.31-.9-.61-.9-1.22-.31.62-.91,1.22-1.22,1.52l-6.35,6.36ZM635.82,117.41c.3-.31.91-.91,1.82-1.21-.91-.31-1.52-.91-1.82-1.22-3.64-4.54-6.06-10.59-6.97-16.35l-1.21.31-.29-.31c-.31.61-.91,4.24-1.22,4.55-.6.3-.9-.62-1.21-1.52-.91,0-1.52-.61-1.21-1.21.9.3,1.81.3,1.81-1.52,0-1.22-.61-1.82-.61-2.72,0-.31.31-.31.31-.31.61,0,1.21,1.52,2.41,1.52,1.52,0,2.12-1.52,2.43-3.03l-.62-.3c0-.91.31-1.82.31-3.03,0-1.52-.91-3.33-2.72-3.33-1.21,0-2.73.61-2.73,1.52s1.21,3.63,1.21,3.93c0,.6-.3,1.21-.91,1.21h-2.12c-.29.61-.29.91-.29,2.72-3.04,1.22-3.33,1.22-3.33,1.82v.3q.6,1.82.6,3.64c2.73,3.33,3.33,4.24,3.64,7.88.9,2.12,1.21,2.73,1.5,7.87,0,.91.31,1.22,1.82,3.64l-.31,2.41q0,.62-1.52,1.82c-.3.61-.3,1.52,0,2.12l11.21-11.21ZM662.76,25.36c0-.61,0-.91.3-1.52q-.91.31-1.52.31c-16.05,1.21-30.59,7.57-41.48,17.55-.31.31-.61.62-1.52.62.6,0,.91.61,1.52.9l7.57,7.57c.31.31.61.6.91,1.52.3-.91.9-1.52,1.21-1.81,8.17-7.27,19.07-12.12,31.79-13.33q.61,0,1.52.3c-.3-.61-.3-.9-.3-1.5v-10.6ZM662.76,148.3c0-.61,0-1.5.3-1.81-.6.31-1.21.31-2.12.31-12.72-1.52-24.53-6.97-33-14.84,2.73,3.64,3.33,3.64,3.33,3.93,0,.91,2.12,1.82,2.12,3.04,0,1.52-1.82,1.81-3.33,1.52-.91.6-1.82.6-2.72.6-1.52.91-3.95,1.81-5.15,1.81-1.52,0-3.93-1.52-5.45-1.81,1.52.61,3.93,2.42,4.84,3.02,10.9,9.09,24.52,14.85,38.76,15.76.9,0,2.12,0,2.72.3-.3-.9-.3-1.5-.3-2.41v-9.4ZM616.74,93.79c-.61,0-1.21-.29-1.52-.29,0,.29.31.9.31,2.11,0,.62.29,4.55.29,5.76,0,.91-.29,1.21-.29,1.82,1.21-1.82,2.12-.91,2.12-2.12,0-.61-.61-1.52-.61-2.43,0-.6.91-1.52,1.22-2.41.3-.62.3-1.22.3-1.82.91-.3,1.52-.61,1.82-.9-.62,0-.91.29-2.12.29h-1.52ZM618.56,88.95c.91,0,1.52.31,1.82.31l-.31-3.03c-.31-.61-.31-2.12,0-2.73.31-.6.91-1.21,1.52-1.52.3-.6.3-1.52.61-2.12.6-.61,1.52-1.21,1.52-1.21,3.33-.6,3.64-.6,3.02-2.43q.91-.61,3.34-1.81c2.11-2.42,2.42-2.73,5.14-3.93,1.52-2.12,2.12-3.03,3.03-3.33-.6,0-1.21-.31-1.82-.91l-7.26-6.97c-.61-.61-.61-.91-.91-1.52-.3.6-.61,1.21-.9,1.52-7.58,7.57-11.81,23.01-11.81,27.55,0,.91,0,1.83-.31,2.43.91-.31,1.21-.31,1.52-.31h1.81ZM662.76,6.59c0-.3,0-.91.3-1.52-.91.31-1.21.31-1.52.31-20.89,1.52-39.97,9.69-54.5,23.01-.31.3-.91.9-1.52.9.6.3.91.6,1.52,1.22l7.26,7.26c.31.3.91.91,1.22,1.81.29-.9.9-1.5,1.21-1.81,12.42-10.6,27.55-16.95,44.81-18.47.31,0,.61,0,1.52.29-.3-.9-.3-1.21-.3-1.81V6.59ZM662.76,166.17c0-.62,0-1.52.3-2.12-.3.29-.91.29-2.12.29-16.96-.91-32.4-7.57-44.81-18.77-.31-.3-1.22-.9-1.22-1.52-.3.91-.61,1.52-.9,1.82l-7.27,7.26c-.61.61-1.21,1.22-1.81,1.22.91.29,1.21.6,1.81,1.21,14.24,13.02,33.31,21.5,53.29,22.41,1.21,0,2.43,0,3.03.29-.3-.6-.3-1.52-.3-2.12v-9.99ZM598.88,93.79q-.91,0-1.52-.29c0,.6.3.9.3,1.5.31,4.84.91,9.08,1.82,13.63.3,1.81.61,3.02.9,3.93,0-.91.3-1.52.61-1.81.3-.31,1.21,0,.9-.6.31-.31,0-.62-.3-1.52,1.21-.61,0-1.52.3-2.43.31-1.52.91-2.72,1.82-3.64.6,0,1.81-.61,3.33-1.5.91-.61.91-2.12,2.12-2.12.9,0,1.21.61,2.42,2.42-.3-1.21-.61-1.52-.61-2.42-.29-2.43-.29-4.55,0-5.45-.29,0-.6.29-1.52.29h-10.59ZM617.04,46.86c-.3-.31-1.21-1.21-1.21-1.81-.29.9-.6,1.21-.91,1.81-9.99,10.6-16.35,26.04-17.26,40.27,0,.61,0,1.21-.3,2.12.61-.31.91-.31,1.52-.31h10.59c.31,0,.91,0,1.52.31-.29-.6-.29-1.22-.29-2.43.9-11.2,5.74-22.4,13.31-30.88.3-.31.91-.91,1.52-.91-.61-.29-.91-.6-1.21-.91l-7.27-7.26ZM631.28,213.4c9.69-10.59,20.9-16.04,28.76-20.58-.9-.31-2.12-.61-3.63-.61-6.06,0-10,2.72-16.65,7.26-13.03,7.88-17.27,10-26.96,10-5.14,0-11.19-1.52-16.95-4.84v-4.24c2.12.61,5.15,1.21,7.88,1.21,6.97,0,11.5-1.81,24.83-6.66,11.2-3.93,16.05-6.05,21.5-6.05,5.14,0,13.02,2.12,15.44,2.72v3.02c-7.86,2.73-20.28,12.72-29.07,23.32l-5.14-4.55ZM595.85,174.64c2.12,3.64,3.93,6.07,6.66,8.48l-6.66-1.52v-6.97ZM595.85,185.55c.61,0,1.52.3,2.12.3,7.57.6,10.9.91,21.19,2.72v-.3c-5.74-1.82-10.29-3.94-13.02-6.36-4.24-3.33-6.05-7.57-10.29-15.14v-4.55c6.97,5.75,13.93,12.41,20.59,18.48,5.76,5.14,10.91,6.35,18.48,8.17-23.32,5.75-26.34,6.66-32.7,6.66-2.43,0-4.55-.3-6.36-.61v-9.38ZM665.49,123.17c-.61,0-3.02,1.5-3.33,1.81,0,.91,1.52,1.21,3.33,1.21v57.24c-28.16,0-52.99-12.72-69.64-31.79v-8.48c1.52,2.12,3.04,3.93,4.84,6.06.61.6,1.21,1.52,1.21,2.43.31-.91.91-1.82,1.52-2.43l6.66-6.36c.62-.6,1.22-1.21,2.12-1.52-.9-.61-1.21-.9-1.81-1.5-.91-.91-1.21-1.22-1.52-2.43h-.61c-.3-.29-2.12-1.52-2.72-1.81-.61-.61-.91-1.52-1.52-3.04-.6.61-.91.61-1.21.61-1.52,0-3.64-1.81-4.24-4.54-.61,0-2.12-.61-2.73-1.21v-57.24c3.04-9.69,8.48-19.38,15.45-26.95.3-.29.61-.9,1.5-.9-1.21-.62-1.5-1.22-1.81-1.52l-7.26-7.27c-.62-.61-.91-1.21-.91-1.81-.31.91-.6,1.21-1.21,1.81-2.12,2.43-4.24,4.84-5.76,6.97v-8.17c16.95-19.38,41.79-31.79,69.64-31.79v75.69c-2.12,0-3.02.31-3.33.62.31.9.61,2.41.61,3.62s-4.24,2.73-5.45,3.03c0,.31-.3,1.21-.61,1.81-1.21.31-2.12,1.22-2.72,2.43v.91c-.31.9-.61,2.12-.91,3.32v1.52c-.29.29-.6.6-1.21.6s-.61-3.03-1.81-3.03h-.31l-.6.61c-.61,0-1.21-.3-1.81-.61-1.52,1.52-1.82,2.12-1.52,3.64-.91.3-1.82.9-1.52,1.21.91.31,4.84-.31,5.75-.31.61-.6.9-.6,1.21-.6.61,0,.91.6.91.91.3,0,.9-.31,1.21-.61.91-.91.61-1.81,1.21-2.12.91-.31.91.91,1.52,1.21-1.81,3.33-1.81,3.64-2.12,4.84-.31.31-.61.31-1.52,0v-.3h-.3c-.31.61,0,.61,1.21,2.12q.61-.61,1.21-2.12,2.43-1.22,2.43-2.43c0-2.12.3-2.12,4.23-2.12,1.82,0,2.74,0,3.04,1.52l-.3.61s.61.6.61,1.21c0,.31-1.82,2.43-1.82,2.43,0,3.64-4.24,3.93-6.97,3.93,2.43,2.12,6.06,3.33,9.69,3.33v15.76Z"/>
      <path class="cls-2" d="M708.23,93.79c1.81,1.81,1.81,2.12,2.12,4.24,2.41,2.43,2.72,2.43,3.93,5.15.61-2.73.91-4.55.91-7.27,0-1.52.3-2.12.3-2.41-.61.29-1.5.29-1.81.29h-5.45ZM707.02,23.85s.3,0,.9.31c.91-.31,1.82-.31,2.73.6.6.61.6,1.21.6,1.81s.31.31.31.91-.6.6-.91.6c-.9,0-1.21-.91-2.12-1.81-1.21-.91-2.42-1.22-2.42-1.82s.61-.6.91-.6M703.38,133.16c-.31-.3-.91-.9-.91-1.81-.61,1.52-1.52,3.64-1.52,3.93,0,.6.31,1.21.91,1.52,1.21.91,2.43,1.21,3.03,1.52.61.61,1.52.91,1.52,1.52s-.31,1.21-.62,1.81c-.9,1.81-2.41,2.41-2.41,3.33,0,.61.91.61,1.21.91.31.61,0,1.52-.29,2.12,3.02-2.12,4.54-3.64,6.05-5.15.61-.6.9-1.21,1.81-1.52-1.81,0-2.12-.3-2.12-1.5l-6.66-6.67ZM716.71,186.45c-1.52.31-3.34,1.22-5.15,1.82v.3c2.43-.3,4.55-.9,5.15-.9v6.35c-3.64-.9-10.29-2.42-20.89-5.14,7.57-1.82,12.71-3.03,18.46-8.17.91-.62,1.52-1.52,2.43-2.12v7.86ZM688.24,71.4q.9.9,1.52,1.5l1.21-3.02c0-.61,1.21-.91,1.52-.91.9,0,2.72.61,3.62.61,1.22-.61,5.45,0,6.67.91l2.42,3.93c0,.31,0,.6-.3,1.21.3.61.3.91.61,1.22,1.21-.91,1.81-1.52,3.02-1.52s1.82.61,1.82.9c1.52,1.52,1.81,1.52,2.41,1.82q0,.91-1.21,1.81c0,.61-1.21,3.04-1.21,3.64l.3.31c2.43.3,3.94-3.95,3.94-3.95,0-.6-1.52-5.45-2.12-6.65-.91-.91-4.84-3.33-5.15-4.24.31-.61.91-2.12.91-3.03s-4.84-6.66-5.45-7.26c-.3-.31-.6-.91-.91-1.52,0,.61-.61,1.21-1.21,1.81l-12.42,12.43ZM709.74,106.52c-.31.6-.91,1.21-2.12,1.21-.91,0-1.52-.31-2.43-.61-.3,1.21-.61,2.12-1.52,2.12s-1.21-.91-1.21-1.52h-.3c0,.31-2.12,3.64-3.64,4.24-1.52.29-1.52.6-3.03,2.41-1.81.31-2.73.61-2.73,1.22s.61.61.91.61c0,0,3.03-.91,3.03-1.22q.61-1.5,1.81-1.81c1.21-.61,2.72-.3,2.72,1.52,0,2.12-.91,5.45-1.52,6.97,0,.6-1.21,2.72-1.21,3.33-.91.31-1.52.6-1.81.6-.62,0-9.4-2.72-11.2-2.72-.31,0-1.22,0-1.22.91,0,.6,3.03,1.21,4.24,1.52.6,0,4.24,2.12,5.15,2.12,0,0,5.45-.3,5.75-.91.3-.61,1.81-4.84,2.73-4.84.3,0,.6,1.52.9,3.02,4.55-5.14,8.17-11.5,10.29-18.16h-3.63ZM687.94,112.26c.31,0,1.21-.29,1.21-1.21,0-2.12-2.11-3.02-3.33-3.64.31-1.81-.9-1.21-1.52-.9-.6.3-.6,3.02,2.12,3.64.31,1.21.62,2.11,1.52,2.11M678.85,116.5c.31,0,3.64-1.52,3.64-2.73-1.52,0-3.64.61-3.93,2.43l.29.3ZM674.92,18.09c-2.43,0-3.93-1.21-4.54-2.11.29-.91.6-.91,1.81-.62.91-.3,6.65-2.42,7.26-2.42,1.22,0,4.84,0,6.67,2.42-.31.62-1.21,2.12-2.72,2.12-3.95,0-4.55,0-7.88.61h-.6ZM667.95,70.17c.91,0,2.72,0,3.64.31.61-.6,2.12-2.43,3.64-3.03.29-.3.9-.91.9-.91.91,0,1.22.62,1.22,1.52,0,1.52-.91,3.64-2.43,4.85-.61.31-4.54,1.82-3.93,2.43.61.3,1.21-.6,2.42-.6.91,0,3.03,2.41,3.64,2.41.91,0,1.21-.6,1.52-.6.29-1.52.29-1.81,1.81-2.73.6-.6,3.64-2.12,4.24-2.72l1.81-1.81s-1.81,0-1.81-.62c0-.9.61-.9.91-1.21.29-.3.6-.3,1.21-.61-.61,0-1.21-.31-1.52-.6-4.24-3.93-9.69-5.76-16.05-6.66-.6,0-.9-.31-1.5-.62.3.91.3,1.52.3,1.82v9.38ZM667.95,52.91c0,.61,0,1.52-.3,2.12.61-.29,1.21-.29,1.81-.29,6.97.9,13.33,3.33,18.78,7.57.3.3.9.9,1.21,1.81.61-.91.91-1.21,1.52-1.81l6.36-6.36c.29-.31.9-.91,1.5-1.21-.61-.31-1.5-.91-1.81-1.22-6.97-6.05-17.57-10.29-27.26-11.19-1.21,0-1.81-.31-2.11-.31.3.61.3,1.52.3,2.12v8.77ZM667.95,157.69c0,.91,0,1.52-.3,2.42.61-.3,1.81-.3,2.73-.3,1.5,0,4.84-.31,9.07-1.21-3.02-.91-6.35-3.03-6.35-5.76,0-.91.9-1.82.9-2.72s-3.62-.91-4.54-1.21c-.91-.62-1.52-1.52-2.12-2.43,0,.31.31,1.21.61,1.81v9.39ZM716.71,209.47c-9.08-.31-13.33-2.42-25.74-10-6.96-4.54-10.6-7.26-16.65-7.26-1.52,0-2.72.3-3.93.61,7.86,4.55,19.38,10,29.07,20.58l-5.15,4.55c-8.77-10.6-21.19-20.59-29.37-23.33v-3.02c2.73-.6,10.6-2.72,15.75-2.72,5.45,0,10.29,2.12,21.5,6.05,6.35,2.43,10.9,3.93,14.53,5.15v9.38ZM667.95,35.36c0,.61,0,1.5-.3,2.11.61-.3,1.21-.3,1.81-.3,10.29.61,19.67,4.24,28.16,10.6-.6-1.22-.6-1.52-.9-1.82l.3-.61c-.91-.3-1.21-.3-1.52-1.52.31,0,.6-.3.6-.61-1.21-2.12-1.5-2.41-1.81-3.02.31-.31.61-.31.91-.31s3.93,4.54,4.24,4.84c2.42,0,2.73.31,4.23,5.76,2.73,3.63,3.03,3.93,2.73,5.14,1.5.31,3.93,2.72,3.93,4.84,0,.61.61.61.9.61,0,0,1.82-.61,2.43-.61s.91.61.91.91c0,.61-.91,2.12-.91,2.42h1.81c.31,1.22.31,1.52-.61,2.12,0,.31,0,.91.31.91.91.31,1.21.31,1.52.91v11.5c-.91,1.21-2.72,5.45-3.34,6.05q-2.12.61-2.12,1.82,0,.61.62.9c-.62.3-1.22.61-1.82.91h3.64c.91,0,1.52.31,1.81.31-.3-1.82.31-3.64.62-5.15.29-.61.29-.91.6-1.52v28.46c-1.82,5.15-5.46,11.2-10,16.36-.61.61-.91.9-1.52,1.21.91.6,1.52,1.21,2.12,1.81l3.33,3.63c.31-1.81,0-2.43,1.22-2.43,2.41,0,2.72,3.64,3.02,6.97.31-.9.91-1.81,1.82-2.73v10.91c-1.22-1.22-1.22-1.52-1.52-2.43-.31.61-.61.91-1.52,1.81-3.64,3.34-7.88,6.67-12.42,9.09-.91,3.34-1.52,3.95-2.43,3.95-.3.9-.9,1.81-1.81,2.41-.61,1.21-1.21,1.52-2.12,1.81-.3.62-1.81,1.22-2.72,1.82-.61.61-1.21,1.81-3.04,1.81-3.62,0-3.02-1.81-6.96-4.54-3.63.9-8.18,1.52-12.42,1.81-1.21,0-1.81,0-2.11-.29.3.6.3,1.5.3,2.12v9.99c0,.61,0,1.52-.3,2.12.61-.3,1.81-.3,3.02-.3,16.65-.61,32.74-6.69,46.36-16.98l-.14,6.54c-14.84,10-32.6,15.89-51.97,15.89v-57.24c.62.31,1.22.31,1.82,0,.6,0,4.54-.9,4.54-.9q.61,1.5.91,1.81c1.21.3,3.03.6,3.63.6s1.52-2.12,1.81-2.41c2.43-.62,6.97-2.12,6.97-5.45,0-1.22-.91-1.22-.91-1.22-.61.3-2.73,1.82-3.33,1.82-.3,0-2.12-.61-2.12-.61q.31.61,0,1.5-.9.61-1.52.61c-.9-.9-1.21-1.21-1.81-1.21l-.31,1.21c-.3,0-4.23-2.11-4.54-2.11q-1.81.61-2.42.9l-2.73,2.12v-15.45c.62,0,1.82-.3,2.43-.3,1.21,0,1.52-1.82,2.12-3.93.3-1.22.61-1.82,1.21-1.82,1.21,0,3.33.6,3.64.31.91-.61,1.21-3.04,1.21-4.24,0-.31-.91-.91-.91-1.52,0-2.12.31-3.64-.61-4.54-.29-.61-1.81,0-1.81-.91,0-.6.29-1.21.91-1.81,0,0,.3-.31.3-.91s-.3-2.12-.3-2.72c-.91-.31-1.22,0-1.82-.31-.3-.61-.61-1.52-1.21-2.12-.61,0-1.21-.3-1.21-1.21-1.52.31-2.12-.61-3.32-.61-.91,0-1.52-3.03-.31-3.03,1.52,0,2.43.6,2.43-.3,0-.61-1.52-1.22-2.73-1.22V.54c19.38,0,36.95,5.75,51.79,15.74v6.36c-13.03-9.69-29.38-16.35-46.94-17.26-.61,0-1.5,0-2.11-.31.3.6.3,1.22.3,2.12v9.69c0,.31,0,1.21-.3,1.82.9-.91,1.5-1.52,1.81-1.22.91.61.3,1.52-.31,2.43.31,0,.61-.31,1.52-.31,9.69.61,19.69,3.34,28.16,7.88,1.82-.31,3.03-.91,4.55-.91.61,0,3.33.91,3.93.61,1.52,0,3.03,3.95,5.45,4.84.91.62.61,3.34,2.12,3.95.61,0,.91.6,1.82,1.5v20.29c-.91-.91-2.43-1.81-2.72-2.12-.62-.3-.91-.9-.91-2.12l-4.24-1.5c-.61-.91-.91-5.15-1.21-5.75-.31-1.21-1.83-2.73-2.43-2.73s-2.42.3-2.72.3c-1.21-1.5-2.42-3.63-2.12-5.14-.9-1.22-.9-1.52-1.81-4.24-.31-.3-1.52-1.81-2.43-2.72-7.57-4.24-17.26-6.67-26.34-7.57-.9,0-1.5,0-2.11-.31.3.91.3,1.52.3,2.43v9.09Z"/>
      <path class="cls-2" d="M790.58,70.78c.91,3.34,3.33,12.12,3.33,17.57,0,23.91-10.9,27.86-20.88,44.51h-.31c.31-3.33.6-6.67.6-9.08,0-6.67-10.29-32.4-9.38-46.64h.3c2.43,10.29,13.93,19.69,13.93,34.52,0,2.43-1.21,8.18-1.21,8.79h.31c3.33-17.57,13.31-32.71,13.31-40.27,0-3.95-.3-5.76-.3-9.4h.3ZM779.38,85.31c-.3-3.02-.9-5.74-.9-10.59,0-6.07,1.52-13.63,1.52-26.35,0-3.94-2.43-7.88-3.34-10.91h.31c8.17,10.91,10.9,19.99,10.9,29.37,0,10.6-5.45,20.59-8.17,33.62h-.31c-.9-7.27-2.42-9.69-16.04-28.77-4.24-6.06-6.96-15.74-7.57-19.38h.3c2.12,3.93,3.03,5.15,12.12,13.02,8.17,7.27,9.08,12.72,10.9,19.98h.3ZM766.06,106.21c0,13.63,3.02,18.47,3.02,26.95,0,4.55-3.02,12.72-5.45,17.26l.31.31c13.62-22.1,27.25-25.43,29.67-42.4.3,1.82.61,3.64.61,5.75,0,13.93-10.6,29.07-17.86,33.61l-22.71,14.85c4.54-7.88,4.84-13.93,6.66-29.07,1.21-13.33,1.81-18.78,5.45-27.26h.31ZM757.89,21.12c10.9,2.73,18.16,14.24,18.16,26.66v21.19c-3.93-6.97-10.59-11.2-19.38-18.78-6.05-5.45-6.97-6.66-11.5-21.19h.3c5.46,13.02,18.48,12.11,26.65,28.46v-.31c-7.57-20.59-4.84-28.16-14.22-35.73v-.31ZM732.45,8.71c7.27,6.36,23.62,2.72,31.5,33.62-16.05-10.31-21.2-24.53-31.79-33.31l.3-.31ZM757.58,131.95c-1.52,3.93-4.24,16.65-5.45,24.22-1.82,9.38-6.05,13.93-12.72,19.99l.3.3c2.73-.91,10.59-8.17,18.17-11.81,15.43-7.57,23.31-12.11,27.55-22.1l.3.29c-4.24,19.98-21.8,32.71-37.84,36.04l-19.07,4.24c6.35-5.75,8.17-11.2,15.74-29.98,2.72-7.26,4.54-10.29,12.71-21.5l.31.31ZM740.01,93.79c-.9,0-1.5,0-2.41-.29.29.9.29,1.21.29,1.81-.6,16.95-7.26,33-18.47,45.12-.29.3-.91.9-1.52,1.21.61.31.91.61,1.52,1.21l7.27,7.27c.61.61.9.9,1.21,1.81.3-.91.91-1.52,1.81-2.42,13.02-14.24,21.21-33.62,22.1-54.2,0-.61,0-.91.31-1.81-.91.29-1.52.29-2.12.29h-10ZM749.7,88.95c.91,0,1.52,0,2.43.31-.31-.6-.61-1.52-.61-2.43-.91-20.9-9.39-39.36-22.71-53.59-.62-.6-.91-.91-1.22-1.82,0,.61-.6,1.22-1.21,1.82l-6.97,6.97c-.6.61-1.21.9-1.52.9.61.31.91.6,1.52,1.22,10.6,12.71,17.57,27.55,18.47,44.51,0,.6,0,1.21-.29,2.43,1.21-.31,1.81-.31,2.41-.31h9.69ZM716.7,200.08c4.24.9,6.97,1.5,10.6,1.5,5.74,0,9.38-1.5,17.86-5.45v.31c-8.17,9.08-18.78,13.02-27.26,13.02h-1.21v-9.38ZM716.7,187.67c6.97-.91,10-1.22,15.74-1.82,15.45-1.81,22.41-.91,33.31-11.21l.31.31c-4.55,7.87-15.76,20.59-37.55,20.59-3.33,0-6.05-.3-11.81-1.52v-6.35ZM716.7,178.58c6.97-6.36,14.53-13.63,22.1-19.98l.31.3c-7.27,12.12-9.09,18.47-14.54,23.01-1.82,1.81-4.55,3.02-7.88,4.54v-7.86ZM716.7,67.76c0-.31.31,0,.31,0,.3,1.21,1.21,2.72,1.21,3.93l-.91,2.72s1.21,1.52.31,3.03c0,.3-.31.61-.91,1.81v-11.5ZM716.7,37.17q.31-.91.91-1.52l5.45-5.45c.61-.6,1.52-1.21,2.12-1.21-.91-.31-1.52-.91-2.12-1.52-2.12-1.81-4.24-3.33-6.36-4.84v-6.36c23.92,16.36,39.97,44.21,39.97,75.71s-16.05,59.34-39.97,75.69l.31-6.66c1.81-1.21,4.23-3.33,6.35-5.15.61-.61,1.22-.9,1.82-1.21-.61-.29-1.22-.6-1.82-1.21l-6.66-6.66v-10.91c9.69-10.9,15.74-25.43,16.35-40.57,0-.61,0-1.21.31-1.81-.6,0-.91.29-1.81.29h-9.69c-.91,0-1.22,0-2.12-.29.3.9.3,1.5.3,2.41,0,1.52-.3,4.24-.9,6.97,0,0,.6-.31.9-.31.91.91,1.52,1.52,1.52,2.43,0,.3-.31,1.52-2.41.91q-.62.61-.91.61c-.31.9-.91,2.41-1.52,4.54v-28.46c.31-.61,1.21-2.72,1.52-3.02.3-.31.61-.31,1.21-.31.31.91-.6,4.55-.6,4.84.91,1.21,1.21,3.33.91,5.45.9-.3,1.5-.61,2.12-.61h9.38c.61,0,1.21,0,2.12.31-.31-.91-.31-1.52-.31-2.43-.6-7.87-2.41-15.14-5.45-21.8-.6.29-1.52.6-1.81.6-.61,0-1.52-1.82-1.82-1.82-3.63-5.14-4.23-5.14-5.75-5.14-.31-.31-.91-.31-1.52-.91v-20.59Z"/>
    </g>
    <text class="cls-5" transform="translate(199.41 156.63)"><tspan x="0" y="0">SHP</tspan></text>
    <line class="cls-1" x1="490.22" y1=".53" x2="490.22" y2="217.95"/>
  </g>
  <g>
    <g class="cls-3">
      <polygon class="cls-4" points="123.87 102.71 140.37 16.56 104.55 0 80.09 130.06 123.87 102.71"/>
    </g>
    <g class="cls-3">
      <polygon class="cls-4" points=".25 141 36 157.61 123.83 102.73 132.32 58.48 .25 141"/>
    </g>
    <g class="cls-3">
      <polygon class="cls-4" points="140.37 16.56 104.55 0 16.72 54.88 8.23 99.13 140.37 16.56"/>
    </g>
    <g class="cls-3">
      <polygon class="cls-4" points="16.5 55.02 0 141.16 35.82 157.72 60.28 27.66 16.5 55.02"/>
    </g>
    <g class="cls-3">
      <polygon class="cls-4" points="151.54 161.35 168.04 75.2 132.22 58.64 107.76 188.7 151.54 161.35"/>
    </g>
    <g class="cls-3">
      <polygon class="cls-4" points="27.92 199.64 63.67 216.25 151.5 161.37 159.99 117.12 27.92 199.64"/>
    </g>
    <g class="cls-3">
      <polygon class="cls-4" points="168.04 75.2 132.22 58.64 44.39 113.52 35.9 157.77 168.04 75.2"/>
    </g>
    <g class="cls-3">
      <polygon class="cls-4" points="44.17 113.66 27.67 199.8 63.49 216.36 87.95 86.3 44.17 113.66"/>
    </g>
  </g>
</svg>